<?xml version="1.0" standalone="no"?>
<!DOCTYPE svg PUBLIC "-//W3C//DTD SVG 1.1//EN" "http://www.w3.org/Graphics/SVG/1.1/DTD/svg11.dtd" >
<!--
2013-9-30: Created.
-->
<svg>
<metadata>
Created by iconfont
</metadata>
<defs>

<font id="iconfont" horiz-adv-x="1024" >
  <font-face
    font-family="iconfont"
    font-weight="500"
    font-stretch="normal"
    units-per-em="1024"
    ascent="896"
    descent="-128"
  />
    <missing-glyph />
    
    <glyph glyph-name="xiangji" unicode="&#58979;" d="M928-42.68799999999999l-832 0c-52.992 0-96 44.096-96 98.432L0 580.928c0 54.4 43.008 98.432 96 98.432L256 679.36 256 712.192c0 54.4 43.008 98.496 96 98.496l320 0c52.992 0 96-44.096 96-98.496l0-32.832 160 0c52.992 0 96-44.096 96-98.432l0-525.12C1024 1.4080000000000155 980.992-42.68799999999999 928-42.68799999999999zM934.976 552.576c0 25.408-20.288 45.952-45.312 45.952l-196.352 0L693.312 675.136c0 25.408-20.288 45.952-45.312 45.952L376.064 721.088c-25.024 0-45.312-20.608-45.312-45.952l0-76.608L134.336 598.528c-25.024 0-45.312-20.608-45.312-45.952l0-459.712c0-25.408 20.288-45.952 45.312-45.952l755.264 0c25.024 0 45.312 20.608 45.312 45.952L934.912 552.576zM512 121.40800000000002c-123.712 0-224 102.848-224 229.76 0 126.912 100.288 229.76 224 229.76s224-102.848 224-229.76C736 224.32000000000005 635.712 121.40800000000002 512 121.40800000000002zM512 515.264c-88.384 0-160-73.472-160-164.096 0-90.624 71.616-164.096 160-164.096s160 73.472 160 164.096C672 441.792 600.384 515.264 512 515.264zM512 416.832c-35.328 0-64-29.376-64-65.664-11.008 0-22.016 0-32 0 0 54.4 42.944 98.432 96 98.432l0 0L512 416.832z"  horiz-adv-x="1024" />

    
    <glyph glyph-name="top" unicode="&#58903;" d="M1019.733333 89.6 558.933333 546.133333 558.933333 546.133333 512 597.333333 512 597.333333 512 597.333333 465.066667 546.133333 465.066667 546.133333 4.266667 89.6 55.466667 42.666667 512 499.2 968.533333 42.666667Z"  horiz-adv-x="1024" />

    
    <glyph glyph-name="shouji-copy" unicode="&#58928;" d="M514.553 81.183c-28.167 0-51.083-22.914-51.083-51.084 0-28.167 22.916-51.084 51.083-51.084 28.169 0 51.086 22.915 51.086 51.084-0.001 28.17-22.917 51.084-51.086 51.084zM767.288 885.26h-505.468c-42.523 0-77.118-34.595-77.118-77.118v-848.284c0-42.524 34.595-77.118 77.118-77.118h505.467c42.523 0 77.117 34.594 77.117 77.118v848.284c0.001 42.523-34.593 77.118-77.116 77.118zM261.82 833.847h505.467c14.175 0 25.707-11.533 25.707-25.707v-635.529h-556.879v635.53c0 14.174 11.532 25.706 25.706 25.706zM767.288-65.846h-505.468c-14.174 0-25.707 11.531-25.707 25.706v156.941h556.88v-156.942c0.001-14.175-11.531-25.705-25.706-25.705z"  horiz-adv-x="1024" />

    
    <glyph glyph-name="wode" unicode="&#58896;" d="M647.876923 303.261538C732.553846 350.523077 787.692308 439.138462 787.692308 541.538462c0 151.630769-124.061538 275.692308-275.692308 275.692308s-275.692308-124.061538-275.692308-275.692308c0-102.4 55.138462-191.015385 137.846154-238.276923C220.553846 252.061538 106.338462 116.184615 82.707692-49.230769l39.384615 0c25.6 163.446154 149.661538 293.415385 311.138462 326.892308 25.6-7.876923 51.2-11.815385 78.769231-11.815385s53.169231 3.938462 78.769231 11.815385c161.476923-33.476923 285.538462-163.446154 311.138462-326.892308l39.384615 0C917.661538 116.184615 803.446154 252.061538 647.876923 303.261538zM275.692308 541.538462c0 129.969231 106.338462 236.307692 236.307692 236.307692s236.307692-106.338462 236.307692-236.307692c0-129.969231-106.338462-236.307692-236.307692-236.307692S275.692308 411.569231 275.692308 541.538462z"  horiz-adv-x="1024" />

    
    <glyph glyph-name="fenxiang" unicode="&#58895;" d="M867.047342 382.703471c-16.486486 0-28.184923-9.052167-28.184923-28.859281l0-317.442886c0-5.885034-22.702048-28.859281-28.184923-28.859281L190.599989 7.542023c-37.835723-2.677992-56.368822 22.973224-56.368822 28.859281L134.231167 671.287075c0 5.891174-11.359722 57.71754 28.184923 57.71754l422.777933 0c16.486486 0 28.186969 11.162224 28.186969 28.859281s-11.701506 28.856211-28.186969 28.856211L134.231167 786.720108c-38.414915 0-56.371892-16.506952-56.371892-57.715493l0-721.462592c0-41.211611 17.956977-57.71754 56.371892-57.71754l704.631252 0c38.414915 0 56.371892 16.506952 56.371892 57.71754L895.234311 353.84419C896.198266 370.495428 883.533828 382.703471 867.047342 382.703471zM935.171905 655.533276 810.67852 786.720108c-11.720949 12.421914-40.898479 40.004109-56.371892 28.859281-11.584849-12.583596-11.741415-45.273113 0-57.715493l112.740714-115.436102c-345.094666-0.883113-424.808172-239.19987-450.962855-346.299097-12.471033-41.691541 10.832719-60.555168 28.184923-57.71754 17.632589 2.880607 29.437449 27.874861 31.426757 37.262672 2.787486 13.171997 49.181119 293.325605 363.167277 309.038472L726.121705 469.277222c-19.676132-26.285666-11.918447-45.50745 0-57.71754 11.80793-9.784854 38.432311 8.719592 56.371892 28.862351l140.925636 144.292314C944.304913 609.455845 956.055538 631.815085 935.171905 655.533276z"  horiz-adv-x="1024" />

    
    <glyph glyph-name="true" unicode="&#58883;" d="M25.48126606 351.62910493000004c-29.17490574 28.97464661-29.3146203 76.12277533-0.33298887 105.27905109 28.99909632 29.18072661 76.14606109 29.32160626 105.30350194 0.33997369l260.81257017-259.23262237 502.3048283 499.23341881c29.15744085 28.99909632 76.29625458 28.84075293 105.2848731-0.31552398 28.96416768-29.15744085 28.84191687-76.30440448-0.31552398-105.30350194l-502.3048283-499.23807573c-58.08318691-57.72109141-151.87996103-57.72109141-209.95849103 0L25.48126606 351.62910493000004"  horiz-adv-x="1024" />

    
    <glyph glyph-name="nav" unicode="&#58891;" d="M883.2 633.6 140.8 633.6C134.4 633.6 128 646.4 128 652.8c0 6.4 6.4 19.2 19.2 19.2l742.4 0c6.4 0 19.2-6.4 19.2-19.2C896 646.4 889.6 633.6 883.2 633.6zM883.2 364.8 140.8 364.8C134.4 364.8 128 377.6 128 384c0 6.4 6.4 19.2 19.2 19.2l742.4 0C889.6 403.2 896 390.4 896 384 896 377.6 889.6 364.8 883.2 364.8zM883.2 96 140.8 96c-6.4 0-19.2 6.4-19.2 19.2 0 6.4 6.4 19.2 19.2 19.2l742.4 0c6.4 0 19.2-6.4 19.2-19.2C896 102.4 889.6 96 883.2 96z"  horiz-adv-x="1024" />

    
    <glyph glyph-name="dingdan" unicode="&#58900;" d="M327.68 487.040092l369.280092 0 0-41.600092L327.68 445.44 327.68 487.040092zM327.68 302.720092l225.920092 0 0-41.600092L327.68 261.12 327.68 302.720092zM778.239754 35.170433 245.76 35.170433c-11.053993 0-21.788431 2.169583-31.904637 6.448326-9.761036 4.128668-18.52288 10.03466-26.042366 17.554145-7.519486 7.51924-13.425478 16.28133-17.554145 26.04212-4.278743 10.116452-6.448326 20.85089-6.448326 31.904883L163.810525 671.360092c0 11.053993 2.169583 21.788431 6.448326 31.904883 4.128422 9.760791 10.03466 18.52288 17.554145 26.04212 7.519486 7.519486 16.28133 13.425723 26.04212 17.554145 10.116452 4.278989 20.85089 6.448326 31.904883 6.448326L326.432238 753.309567l0-41.018949-80.672238 0c-22.569265 0-40.930525-18.361261-40.930525-40.930525l0-554.240184c0-22.569265 18.361261-40.930525 40.930525-40.930525l532.479754 0c22.569265 0 40.930771 18.361261 40.930771 40.930525L819.170525 671.360092c0 22.569265-18.361506 40.930525-40.930771 40.930525L697.813385 712.290617l0 41.018949 80.42637 0c11.054238 0 21.788431-2.169583 31.904883-6.448326 9.760791-4.128422 18.52288-10.03466 26.042366-17.554145 7.51924-7.519486 13.425232-16.28133 17.554145-26.04212 4.278743-10.116452 6.448326-20.85089 6.448326-31.904883l0-554.240184c0-11.053993-2.169583-21.788431-6.448326-31.904883-4.128913-9.760791-10.03466-18.52288-17.554145-26.04212-7.519731-7.519486-16.281575-13.425478-26.042366-17.554145C800.028185 37.340016 789.293993 35.170433 778.239754 35.170433zM716.829475 630.370617 307.170525 630.370617l0 133.149475c0 28.248056 22.981419 51.229475 51.229475 51.229475l52.897497 0c18.91342 37.660554 57.71096 62.079846 100.702503 62.079846 42.991789 0 81.789083-24.419293 100.702258-62.079846l52.897497 0c28.248056 0 51.229475-22.981419 51.229475-51.229475L716.829229 630.370617zM348.189475 671.389567l327.621051 0 0 92.130525c0 5.630158-4.580367 10.210525-10.210525 10.210525l-81.080708 0-4.769251 13.818228c-9.962938 28.866779-37.189695 48.261619-67.750041 48.261619-30.560345 0-57.787103-19.39484-67.750286-48.261619l-4.769251-13.818228L358.4 773.730617c-5.630158 0-10.210525-4.580367-10.210525-10.210525L348.189475 671.389567z"  horiz-adv-x="1024" />

    
    <glyph glyph-name="comment-pen" unicode="&#58941;" d="M949.571 683.326l-41.801-41.518-139.204 138.348 41.801 41.459c15.34 15.283 39.522 16.084 53.892 1.768l87.024-86.454c14.428-14.313 13.628-38.324-1.712-53.604v0zM580.373 316.406l-139.203 138.35 306.239 304.3 139.205-138.349-306.241-304.301zM560.985 297.131l-194.863-55.315 55.66 193.667 139.203-138.352zM236.552 717.881c-48.132 0-87.081-38.949-87.081-87.024v-522.372c0-48.063 38.962-87.026 87.026-87.026h522.486c48.064 0 87.028 38.963 87.028 87.028v348.265l87.079 87.028v-464.321c0-80.125-64.954-145.078-145.078-145.078h-580.543c-80.125 0-145.078 64.954-145.078 145.078l0 580.426c0 80.125 64.954 145.078 145.078 145.078h464.436l-87.083-87.083-348.269 0.001z"  horiz-adv-x="1024" />

    
    <glyph glyph-name="icon-test" unicode="&#58892;" d="M511.999488 755.408985c115.202789 0 212.235752-98.829889 212.235753-212.235752v-70.745251H299.763736v70.745251c0 113.405863 97.014544 212.235752 212.235752 212.235752m0 35.364439c-140.817166 0-247.609401-108.99439-247.6094-247.600191v-106.117877h495.217778V543.173233c0.001023 138.605801-106.791212 247.600191-247.608378 247.600191z m300.667828-353.718068v-318.354651c0-51.970652-53.318346-106.117876-106.117877-106.117876H317.449537c-52.79953 0-106.117876 54.147224-106.117876 106.117876V437.055356h601.335655m35.372625 35.371603H175.959036l0.017396-353.450985c0-78.750575 64.009849-141.749398 144.011928-141.749398h384.021233c80.003102 0 144.011928 62.998823 144.011928 141.749398V475.76089l0.01842-3.333931zM519.995603 307.982676c12.815887 0 24.007787-11.018961 24.007787-23.619954v-94.502327c0-12.599969-11.1919-23.62814-24.007787-23.62814-12.798491 0-24.007787 11.028171-24.007787 23.62814v94.502327c0 12.600993 11.209296 23.619954 24.007787 23.619954z"  horiz-adv-x="1024" />

    
    <glyph glyph-name="right" unicode="&#58908;" d="M294.6 25l351.5 351.5c1.9 1.9 3.1 4.5 3.1 7.5s-1.2 5.6-3.2 7.6L294.6 743c-13.9 13.9-13.9 36.7 0 50.6 13.9 13.9 36.7 13.9 50.6 0l384.3-384.3c13.9-13.9 13.9-36.7 0-50.6-0.1-0.1-0.1-0.1-0.2-0.1L345.1-25.6c-13.9-13.9-36.7-13.9-50.6 0-13.8 13.9-13.8 36.7 0.1 50.6zM641.2 373.8c-0.2 0-0.3-0.1-0.5-0.1 0.2 0 0.3 0 0.5 0.1zM642.9 374.4c-0.1 0-0.1-0.1-0.2-0.1 0.1 0 0.1 0 0.2 0.1zM638.6 373.4h0z"  horiz-adv-x="1024" />

    
    <glyph glyph-name="delete" unicode="&#58904;" d="M672 768h320a32 32 0 0 0 0-64H32a32 32 0 0 0 0 64h320V864a32 32 0 0 0 32 32h256a32 32 0 0 0 32-32v-96zM96 704h832v-768a64 64 0 0 0-64-64H160a64 64 0 0 0-64 64V704z m96 0a32 32 0 0 1-32-32v-704a32 32 0 0 1 32-32h640a32 32 0 0 1 32 32V672a32 32 0 0 1-32 32H192z m224 128v-64h192V832h-192z m-96-352a32 32 0 0 0 32-32v-320a32 32 0 0 0-64 0V448a32 32 0 0 0 32 32z m192 64a32 32 0 0 0 32-32v-384a32 32 0 0 0-64 0V512a32 32 0 0 0 32 32z m192-64a32 32 0 0 0 32-32v-320a32 32 0 0 0-64 0V448a32 32 0 0 0 32 32z"  horiz-adv-x="1024" />

    
    <glyph glyph-name="shoucang1" unicode="&#58881;" d="M752-43.200000000000045c-9.6 0-20.8 3.2-30.4 8l-208 104L304-35.200000000000045c-20.8-11.2-48-9.6-67.2 4.8-19.2 14.4-30.4 40-25.6 64l43.2 224-164.8 153.6c-17.6 17.6-24 44.8-17.6 67.2 8 24 27.2 41.6 52.8 44.8l228.8 41.6 102.4 208c11.2 22.4 33.6 36.8 57.6 36.8s48-14.4 57.6-36.8l102.4-208 228.8-40c24-3.2 44.8-20.8 51.2-44.8 8-24 1.6-49.6-16-67.2l-164.8-155.2 41.6-224c4.8-25.6-6.4-49.6-25.6-64-9.6-8-22.4-12.8-36.8-12.8z"  horiz-adv-x="1024" />

    
    <glyph glyph-name="icon-" unicode="&#58946;" d="M254.7712 243.3024c-90.5216 0-163.84-64.1024-163.84-143.36s73.3184-143.36 163.84-143.36 163.84 64.1024 163.84 143.36-73.3184 143.36-163.84 143.36z m0-245.76c-67.7888 0-122.88 45.8752-122.88 102.4s55.0912 102.4 122.88 102.4 122.88-45.8752 122.88-102.4-55.0912-102.4-122.88-102.4zM766.7712 366.1824c-90.5216 0-163.84-64.1024-163.84-143.36s73.3184-143.36 163.84-143.36 163.84 64.1024 163.84 143.36-73.3184 143.36-163.84 143.36z m0-245.76c-67.7888 0-122.88 45.8752-122.88 102.4s55.0912 102.4 122.88 102.4 122.88-45.8752 122.88-102.4-55.0912-102.4-122.88-102.4zM398.1312 673.3824a20.48 20.48 0 0 0 20.48-20.48v-532.48a20.48 20.48 0 0 0-40.96 0v532.48a20.48 20.48 0 0 0 20.48 20.48zM912.5888 811.008a20.48 20.48 0 0 0 20.48-20.48v-573.44a20.48 20.48 0 0 0-40.96 0v573.44a20.48 20.48 0 0 0 20.48 20.48zM392.8064 672.768l514.2528 137.8304a20.48 20.48 0 0 0 10.6496-39.5264L403.456 633.2416a20.48 20.48 0 0 0-10.6496 39.5264zM500.5312 496.8448l-107.7248-28.8768a20.48 20.48 0 0 1 10.6496-39.5264l97.0752 26.0096zM932.2496 591.4624a20.48 20.48 0 0 1-24.9856 14.5408L541.4912 506.88v-40.96l376.2176 100.352a20.48 20.48 0 0 1 14.5408 25.1904z"  horiz-adv-x="1024" />

    
    <glyph glyph-name="account" unicode="&#59283;" d="M613.60355555 329.61422222H409.48622222c-189.78133333 0-344.064-152.00711111-344.064-338.944v-20.13866667c0-97.73511111 151.77955555-97.73511111 344.064-97.7351111h204.00355556c184.66133333 0 343.95022222 0 343.95022222 97.7351111v20.13866667c0.11377778 186.93688889-154.16888889 338.944-343.83644445 338.944z m268.8568889-357.03466667c-5.80266667-3.86844445-24.91733333-13.19822222-77.71022223-18.8871111-52.90666667-5.68888889-120.03555555-5.68888889-191.26044444-5.6888889H409.48622222c-72.36266667 0-140.74311111 0-193.08088889 5.46133334-51.76888889 5.46133333-70.31466667 14.56355555-75.88977778 18.20444444v19.00088889c0 145.52177778 120.60444445 263.85066667 268.97066667 263.85066667h204.00355556c148.25244445 0 268.85688889-118.32888889 268.85688889-263.85066667v-18.09066667zM503.35288889 345.88444445000005c151.32444445 0 273.97688889 122.65244445 273.97688889 273.97688888S654.67733333 893.83822222 503.35288889 893.83822222 229.376 771.18577778 229.376 619.86133333s122.65244445-273.97688889 273.97688889-273.97688888zM362.72355555 760.49066667c37.54666667 37.54666667 87.49511111 58.25422222 140.62933334 58.25422222S606.43555555 798.03733333 643.98222222 760.49066667s58.25422222-87.49511111 58.25422223-140.62933334S681.52888889 516.77866667 643.98222222 479.232s-87.49511111-58.25422222-140.62933333-58.25422222-103.08266667 20.70755555-140.62933334 58.25422222-58.25422222 87.49511111-58.25422222 140.62933333 20.59377778 103.08266667 58.25422222 140.62933334z"  horiz-adv-x="1024" />

    
    <glyph glyph-name="dizhikong" unicode="&#58919;" d="M512-50.879999999999995c-4.32 0-9.12 1.44-12.96 4.32-13.92 10.56-338.88 262.08-338.88 523.68 0 188.16 157.92 341.28 351.84 341.28s351.84-153.12 351.84-341.28c0-261.6-325.44-513.12-338.88-523.68-3.84-2.88-8.64-4.32-12.96-4.32z m0 814.08c-164.64 0-299.04-130.08-299.04-289.44 0-205.92 240.96-416.16 299.04-463.68 57.6 47.52 299.04 257.76 299.04 463.68 0 159.84-134.4 289.44-299.04 289.44z m0-429.6c-79.68 0-144.48 63.36-144.48 141.12s64.8 141.12 144.48 141.12 144.48-63.36 144.48-141.12c0-7.68-0.96-15.84-2.4-25.44-1.92-11.04-12.96-18.24-24-16.32-11.04 1.92-18.72 12.48-16.8 23.52 1.44 6.72 1.92 12.48 1.92 17.76 0 55.68-46.56 100.8-103.2 100.8-57.12 0-103.2-45.12-103.2-100.8s46.56-100.8 103.2-100.8c5.28 0 11.04 0.48 18.24 1.92 11.04 1.92 22.08-5.28 24-16.32 1.92-11.04-5.28-21.6-16.8-23.52-9.12-1.44-17.28-1.92-25.44-1.92z"  horiz-adv-x="1024" />

    
    <glyph glyph-name="xiaoxi" unicode="&#58901;" d="M647.2 466.256H225.382c-8.482 0-15.36-6.867-15.36-15.36 0-8.49 6.878-15.358 15.36-15.358H647.2c8.48 0 15.36 6.867 15.36 15.359s-6.88 15.36-15.36 15.36z m-62.031-143.291H287.407c-8.486 0-15.365-6.868-15.365-15.359 0-8.486 6.879-15.36 15.365-15.36H585.17c8.48 0 15.36 6.874 15.36 15.36 0 8.491-6.88 15.359-15.36 15.359z m301.497 459.44H286.019c-38.646 0-70.098-30.933-70.098-68.954v-37.968c0-12.721 10.312-23.038 23.039-23.038 12.732 0 23.04 10.323 23.04 23.038V713.45c0 12.615 10.77 22.876 24.019 22.876h600.646c13.24 0 24.014-10.261 24.014-22.876v-368.28c0-12.616-10.773-22.894-24.014-22.894h-36.836c-12.728 0-23.04-10.319-23.04-23.04 0-12.715 10.312-23.038 23.04-23.038h36.836c38.645 0 70.091 30.947 70.091 68.97V713.452c0.001 38.021-31.446 68.955-70.09 68.955zM736.61 632.365H135.96c-38.645 0-70.086-30.943-70.086-68.972V195.11c0-38.023 31.44-68.972 70.086-68.972h197.05l84.067-126.672a23.053 23.053 0 0 1 19.203-10.3c7.714 0 14.92 3.87 19.193 10.3l84.094 126.672h197.044c16.352 0 32.383 5.883 45.172 16.576 15.84 13.246 24.926 32.342 24.926 52.396v368.28c0 38.03-31.448 68.973-70.098 68.973z m30.823-439.875c0-8.898-5.375-14.734-8.573-17.417-3.255-2.708-8.66-5.952-15.947-5.952H529.116a23.554 23.554 0 0 1-19.614-10.523l-73.222-110.31-73.218 110.31a23.528 23.528 0 0 1-19.598 10.523H129.655c-13.513 0-24.512 10.49-24.512 23.37V568.498c0 12.88 11 23.37 24.512 23.37h613.259c13.527 0 24.52-10.49 24.52-23.37v-376.009z m-6.809 2.622"  horiz-adv-x="1024" />

    
    <glyph glyph-name="phone1" unicode="&#58888;" d="M230.980213 778.320022c4.461606-3.407603 12.678738-10.611664 24.958388-24.948155 13.988568-16.321701 29.67582-37.688292 45.434704-61.817804 31.89639-48.883239 50.858216-88.526042 55.258424-101.777831-1.023304-7.285926-5.351881-14.868609-12.75037-27.332454-11.604269-19.524643-27.48595-46.273814-27.48595-83.542551 0-13.702043 0-55.391454 111.274094-168.487029 27.414318-27.864572 55.667746-53.52904 79.551665-72.275972 36.286365-28.468322 60.303314-40.082824 82.887636-40.082824 32.008954 0 58.532998 14.172763 79.817724 25.582604 15.093736 8.07387 28.243195 15.103969 39.530239 15.891913 10.713994-2.998281 47.358516-20.732142 104.448655-61.613143 23.188072-16.597993 45.537035-34.137427 62.912739-49.364192 13.487149-11.819163 21.325659-19.893033 25.674701-24.804893-3.448535-25.510973-17.825958-51.840588-40.625175-73.800696-24.303474-23.402966-55.51425-38.527401-79.510733-38.527401-55.821242 0-125.989207 24.262541-202.910981 70.157733-74.210017 44.278371-151.561578 106.628293-223.684055 180.306192C284.918575 314.30275400000005 224.574329 391.910141 181.247632 466.355518c-21.683815 37.258504-38.384139 72.654595-49.650718 105.093337-11.020986 31.722429-16.608226 60.016789-16.608226 84.003038 0 9.711156 4.093217 21.827078 11.80893 35.048167 8.524124 14.592317 21.120998 29.849782 36.419395 44.124875a239.2 239.2 0 0 0 45.751929 33.850901A113.66 113.66 0 0 0 230.980213 778.320022m4.942559 53.600672c-50.60239 0-172.027661-92.148539-172.027661-176.509733 0-246.616301 442.722309-716.425471 718.482312-716.425471 75.898469 0 172.037894 81.762002 172.037894 176.509733 0 32.438742-197.333973 176.509733-242.871008 176.509733-46.795699 0-80.953592-41.525683-121.425271-41.525683S367.468521 433.527921 367.468521 478.952392s40.471679 67.486909 40.471679 114.210977c0 33.769037-121.425271 238.80849-172.027661 238.80849l0 0Z"  horiz-adv-x="1024" />

    
    <glyph glyph-name="back" unicode="&#58992;" d="M330.472727 316.509091c-11.636364 0-23.272727 4.654545-32.581818 11.636364-18.618182 18.618182-18.618182 46.545455-2.327273 65.163636L663.272727 784.290909c18.618182 18.618182 46.545455 18.618182 65.163637 2.327273 18.618182-18.618182 18.618182-46.545455 2.327272-65.163637L363.054545 330.472727c-9.309091-9.309091-20.945455-13.963636-32.581818-13.963636zM698.181818-39.563636c-11.636364 0-23.272727 4.654545-32.581818 13.963636L297.890909 328.145455c-18.618182 18.618182-18.618182 46.545455 0 65.163636 18.618182 18.618182 46.545455 18.618182 65.163636 0l367.709091-356.072727c18.618182-18.618182 18.618182-46.545455 0-65.163637-9.309091-6.981818-20.945455-11.636364-32.581818-11.636363z"  horiz-adv-x="1024" />

    
    <glyph glyph-name="loading" unicode="&#58971;" d="M536.876 614.2080000000001a124.8 124.8 0 1 0 124.8 124.8 125.088 125.088 0 0 0-124.8-124.8zM271.076 515.0640000000001a114.072 114.072 0 1 0 114.072 114.072 114.24 114.24 0 0 0-114.072-114.072zM158.3 257.03999999999996a100.656 100.656 0 1 0 100.656 100.56A100.8 100.8 0 0 0 158.3 257.03999999999996z m112.8-255.432a85.296 85.296 0 1 0 85.296 85.296A85.464 85.464 0 0 0 271.1 1.6079999999999472zM536.876-96a74.4 74.4 0 1 0 74.4 74.4 74.4 74.4 0 0 0-74.4-74.4z m269.712 125.76a60.168 60.168 0 1 0 60.168 60.168 60.336 60.336 0 0 0-60.168-60.168z m110.4 278.16a49.344 49.344 0 1 0 49.368 49.344 49.32 49.32 0 0 0-49.344-49.344z m-148.8 317.544a38.4 38.4 0 1 0 11.256-27.048 37.992 37.992 0 0 0-11.256 27.048z"  horiz-adv-x="1024" />

    
    <glyph glyph-name="shopping-bag" unicode="&#58969;" d="M921.6 10.83681l-58.633947 660.260123c-1.256442 14.658487-13.611452 25.757055-28.060532 25.757055h-120.618404C712.611861 807.002045 622.566871 896 512 896s-200.611861-88.997955-202.287117-199.146012H189.094479c-14.658487 0-26.80409-11.098569-28.060532-25.757055l-58.633947-660.260123c0-0.837628-0.209407-1.675256-0.209407-2.512884 0-75.177096 68.894888-136.323926 153.704704-136.323926h512.209406c84.809816 0 153.704703 61.14683 153.704704 136.323926 0 0.837628 0 1.675256-0.209407 2.512884zM512 839.460123c79.365235 0 144.071984-63.659714 145.747239-142.606135H366.252761c1.675256 78.946421 66.382004 142.606135 145.747239 142.606135z m256.104703-910.920246H255.895297c-53.189366 0-96.327198 35.180368-97.164827 78.527608l56.121064 633.037218h94.651942v-85.85685c0-15.705521 12.564417-28.269939 28.269939-28.269939s28.269939 12.564417 28.269939 28.269939v85.85685h291.703885v-85.85685c0-15.705521 12.564417-28.269939 28.269939-28.269939s28.269939 12.564417 28.269939 28.269939v85.85685h94.651942l56.330471-633.037218c-0.837628-43.347239-44.184867-78.527607-97.164827-78.527608z"  horiz-adv-x="1024" />

    
    <glyph glyph-name="info" unicode="&#58970;" d="M360 47.542h40V336.458H360c-22.092 0-40 17.908-40 40V472c0 22.092 17.908 40 40 40h224c22.092 0 40-17.908 40-40v-424.458h40c22.092 0 40-17.908 40-40V-88c0-22.092-17.908-40-40-40H360c-22.092 0-40 17.908-40 40v95.542c0 22.092 17.908 40 40 40zM512 896C432.47 896 368 831.53 368 752s64.47-144 144-144 144 64.47 144 144S591.528 896 512 896z"  horiz-adv-x="1024" />

    
    <glyph glyph-name="shipin" unicode="&#58964;" d="M513-32.1c-228.8 0-415 186.2-415 415 0 98.2 34.9 193.4 98.3 268.2 5.3 6.2 14.6 7 20.9 1.7 6.3-5.3 7-14.6 1.7-20.9-58.9-69.4-91.3-157.9-91.3-249 0-212.5 172.9-385.4 385.4-385.4 76.6 0 150.6 22.4 214 64.8 6.7 4.5 16 2.8 20.6-4.1 4.6-6.8 2.7-16-4.1-20.6-68.3-45.6-148-69.7-230.5-69.7zM853.9 158.3c-2.6 0-5.3 0.7-7.8 2.2-7 4.3-9.1 13.4-4.8 20.4 37.3 60.6 57.1 130.4 57.1 201.9 0 212.5-172.9 385.3-385.4 385.3-77.2 0-151.7-22.8-215.4-65.8-6.8-4.6-16-2.8-20.6 4-4.6 6.8-2.8 16 4 20.6 68.6 46.4 148.9 70.9 232 70.9 228.8 0 415-186.2 415-415 0-77-21.3-152.2-61.5-217.5-2.8-4.4-7.6-7-12.6-7zM451 245.1c-2.6 0-5.1 0.7-7.4 2-4.6 2.6-7.4 7.6-7.4 12.8l0.1 257.8c0 5.3 2.8 10.2 7.4 12.8 4.6 2.6 10.2 2.6 14.8 0l223.2-129c4.6-2.7 7.4-7.6 7.4-12.9 0-5.3-2.8-10.2-7.4-12.8L458.4 247.1c-2.3-1.3-4.9-2-7.4-2z m14.9 247l-0.1-206.5 178.8 103.1-178.7 103.4zM819.4 126.3m-14.8 0a14.8 14.8 0 1 1 29.6 0 14.8 14.8 0 1 1-29.6 0ZM789.8 90.2m-14.8 0a14.8 14.8 0 1 1 29.6 0 14.8 14.8 0 1 1-29.6 0Z"  horiz-adv-x="1024" />

    
    <glyph glyph-name="search" unicode="&#58880;" d="M1012-51.51999999999998L717.12 243.36a390.56 390.56 0 1 1-65.76-69.92L944-119.20000000000005z m-912 525.28a302.72 302.72 0 1 0 302.4-302.72A303.04 303.04 0 0 0 99.84 473.76z"  horiz-adv-x="1024" />

    
    <glyph glyph-name="kefu" unicode="&#58897;" d="M936.7 440.3C918.3 661.1 736.4 835 515.4 835c-222.9 0-406-176.9-421.8-400.3-48-8.8-84.6-51-84.6-101.5v-88.1c0-29.9 4.6-59.6 13.5-87.8l25.1-84.8c26.3-55.5 83-91.3 144.4-91.3h177.2c15.6-37.2 52.3-63.3 95.1-63.3 56.8 0 103 46.2 103 103s-46.2 103-103 103-103-46.2-103-103v-0.2H192c-46.2 0-88.9 27-107.7 65.9l-24.1 82.3c-7.8 24.7-11.8 50.3-11.8 76.2v88.1c0 35.1 28.6 63.7 63.7 63.7s63.7-28.6 63.7-63.7V203c0-10.9 8.8-19.7 19.7-19.7s19.7 8.8 19.7 19.7V333.2c0 49.8-35.4 91.4-82.3 101.1 15.4 201.9 181 361.3 382.2 361.3 199.5 0 363.8-156.5 381.8-355.8-46.7-9.9-81.8-51.4-81.8-101v-130.2c0-56.9 46.3-103.2 103.2-103.2s103.2 46.3 103.2 103.2V338.7c0.3 50.7-36.5 93-84.8 101.6zM464.3 84.5c35.1 0 63.6-28.5 63.6-63.6s-28.5-63.6-63.6-63.6-63.6 28.5-63.6 63.6c0.1 35.1 28.6 63.6 63.6 63.6z m518 124.1c0-35.2-28.6-63.7-63.7-63.7-35.2 0-63.7 28.6-63.7 63.7V338.7c0 35.2 28.6 63.7 63.7 63.7s63.7-28.6 63.7-63.7v-130.1z"  horiz-adv-x="1024" />

    
    <glyph glyph-name="home_ico_like-" unicode="&#58914;" d="M977.6128 521.8304c0 155.2384-121.856 281.6-271.36 281.6A265.5232 265.5232 0 0 1 512 717.2096a265.8816 265.8816 0 0 1-194.2528 86.2208c-149.6064 0-271.36-126.2592-271.36-281.6a122.88 122.88 0 0 1 0.9216-13.6704v-3.84A239.5136 239.5136 0 0 1 66.9184 414.72c0.4096-1.1776 0.8192-2.304 1.3312-3.328C150.9376 212.8896 469.248-15.36 482.7648-25.6a46.6944 46.6944 0 0 1 57.1904 0.256c11.5712 9.0112 283.0848 204.4416 390.8608 389.12a191.6928 191.6928 0 0 1 9.8816 17.5104c0.8192 1.6896 1.5872 3.328 2.5088 5.12l0.3584 0.768a17.3056 17.3056 0 0 0 1.1776 1.8944 299.8784 299.8784 0 0 1 15.6672 35.84 223.7952 223.7952 0 0 1 16.64 79.7696v5.12a113.0496 113.0496 0 0 1 0.5632 12.032z"  horiz-adv-x="1024" />

    
    <glyph glyph-name="like" unicode="&#58886;" d="M737.83220148 816.05214815c-87.24783408 0-170.98827852-40.6444563-225.63802073-104.8818726-54.61333333 64.2374163-138.35377778 104.88187259-225.63802075 104.8818726C132.13392592 816.05214815 10.77096297 694.6163674100001 10.77096297 540.0484977799999c0-189.69031111 170.47855408-344.24604445 428.71466666-579.10765037l56.36096-50.97244444a24.27259259 24.27259259 0 0 1 32.63450074 0.06068148l56.42164148 51.4093511c258.2239763 234.35188148 428.71466667 388.90761482 428.71466667 578.59792593 0 154.58000592-121.35082667 276.01578667-275.78519704 276.01578667zM463.96453925 601.2397037000001a50.07435852 50.07435852 0 0 1 95.97383112-2.42725925c26.69985185 67.96325925 101.27739259 116.82398815 177.89383111 116.82398814 100.2822163 0 175.50298075-75.24503703 175.50298074-175.63648 0-145.02874075-157.45630815-288.0428563-396.12871111-504.33592889a7.08759703 7.08759703 0 0 0-10.02458074 0c-238.68453925 216.29307259-396.12871111 359.30718815-396.12871112 504.33592889 0 100.36717037 75.24503703 175.63648 175.50298075 175.63648 75.71835259 0.04854518 149.50703408-47.71991703 177.40837925-114.39672889z"  horiz-adv-x="1024" />

    
    <glyph glyph-name="bianji" unicode="&#59001;" d="M935.125333 637.184c4.693333-6.229333 4.693333 24.149333 0 56.661333l-113.28 113.28c-32.512 4.693333-62.890667 4.693333-56.661333 0l-113.322667-113.28 169.984-169.984c10.922667 0 99.2 88.32 113.28 113.322667zM85.333333 127.317333V-42.666667h169.941334l509.866666 509.866667-169.941333 169.984L85.333333 127.317333z"  horiz-adv-x="1024" />

    
    <glyph glyph-name="close2" unicode="&#58884;" d="M521.08800031 442.78399969L136.448 827.424a48 48 0 1 1-67.90399969-67.84000031l384.63999938-384.672-384.63999938-384.672a48 48 0 1 1 67.872-67.872l384.672 384.64000031 384.672-384.64000031a48 48 0 1 1 67.872 67.84000031l-384.64000031 384.70399969 384.64000031 384.64000031a48 48 0 1 1-67.872 67.872l-384.64000031-384.64000031z"  horiz-adv-x="1024" />

    
    <glyph glyph-name="yanzhengma" unicode="&#58952;" d="M510.777 773.731c18.373-15.748 45.928-38.055 81.358-64.299C652.5 666.125 748.29 604.451 869.014 554.588c0-47.242-2.621-154.844-34.115-263.756-24.934-82.671-60.364-150.908-107.603-200.771-27.559-28.869-57.738-53.803-93.169-70.86-36.741-19.683-78.732-31.495-123.35-38.054-44.615 6.559-86.607 18.371-123.349 38.054-34.12 18.372-65.61 41.991-91.854 72.171-47.242 51.178-82.671 119.413-106.291 203.396-31.495 110.228-34.12 217.829-32.805 266.381 119.41 48.552 213.893 107.601 274.252 150.907 34.12 23.62 61.675 45.927 80.047 61.675m0 56.424s-149.593-148.283-396.29-241.447c0 0-43.307-597.066 396.29-650.863 439.594 53.797 398.917 645.613 398.917 645.613C659.061 681.872 510.777 830.155 510.777 830.155z m0 0M440.876 208.229L308.608 351.388c-7.87 7.877-7.87 20.999 0 30.179 7.876 7.878 20.999 7.878 30.184 0l103.399-112.973 243.018 241.701c7.872 7.875 20.994 7.875 30.181 0 7.875-7.872 7.875-20.993 0-30.18L440.876 208.229z m0 0"  horiz-adv-x="1024" />

    
    <glyph glyph-name="shoucang" unicode="&#58882;" d="M292.717096-40.426654c-16.663262 0-33.204894 6.689631-46.462526 16.663262-23.231263 19.947262-36.488894 53.152156-33.204893 83.073049l36.488894 195.945361-139.509205 132.819575c-23.231263 23.231263-26.515263 59.841786-23.231263 86.35705 9.973631 36.488894 36.488894 59.841786 66.409787 63.125787l192.661362 36.488894 86.357049 185.97173c19.947262 29.920893 46.462525 46.462525 79.667419 46.462526 33.204894 0 59.841786-16.663262 76.383418-46.462526l86.35705-185.97173L867.295549 540.84143c29.920893-6.689631 56.436156-29.920893 66.409788-59.841786 9.973631-29.920893 3.284-59.841786-16.663262-86.35705L774.248869 255.255018l33.204894-195.945361c3.284-33.204894-6.689631-63.125787-33.204894-83.073049-16.663262-9.973631-29.920893-16.663262-49.868155-16.663262-16.663262 0-33.204894 6.689631-36.488894 9.973631l-175.9981 93.04668-179.40373-89.64105c-13.257632-9.973631-26.515263-13.379261-39.772894-13.379261zM511.89372 756.734054c-13.257632 0-23.231263-6.689631-29.920893-19.947262l-99.614681-205.918993-219.176625-43.178525c-19.947262-3.284-23.231263-16.663262-26.515263-26.515263 0-9.973631 0-29.920893 9.973631-39.894524l159.334838-152.766837-43.178525-215.892624c-3.284-13.257632 3.284-26.515263 13.257632-36.488894 9.973631-6.689631 23.231263-6.689631 33.204894 0l199.229362 103.020311 199.229362-103.020311c3.284-3.284 9.973631-3.284 16.663262-3.284001s13.257632 0 19.947262 6.689631c9.973631 6.689631 13.257632 23.231263 13.257631 36.488894l-39.894524 222.582255 159.456468 156.050837c6.689631 9.973631 9.973631 23.231263 6.68963 39.894524-3.284 13.257632-16.663262 23.231263-26.515263 26.515263L638.145294 540.84143l-99.614681 205.918993c-3.40563 3.284-13.379261 9.973631-26.636893 9.973631z"  horiz-adv-x="1024" />

    


  </font>
</defs>
</svg>
